<?xml version="1.0" encoding="iso-8859-1"?>
<!-- Generator: Adobe Illustrator 19.0.0, SVG Export Plug-In . SVG Version: 6.00 Build 0)  -->
<svg version="1.1" id="Capa_1" xmlns="http://www.w3.org/2000/svg" xmlns:xlink="http://www.w3.org/1999/xlink" x="0px" y="0px"
	 fill="#ffffff" viewBox="0 0 512 512" style="enable-background:new 0 0 512 512;" xml:space="preserve">
<g>
	<g>
		<g>
			<path d="M180.272,56.931l-18.672-26c-9.628,6.9-18.461,14.848-26.336,23.696l23.904,21.28
				C165.481,68.823,172.559,62.459,180.272,56.931z"/>
			<path d="M142.912,99.059l-28.096-15.312c-5.705,10.461-10.177,21.549-13.328,33.04l30.864,8.432
				C134.846,116.119,138.39,107.34,142.912,99.059z"/>
			<path d="M352,371.747c34.848-27.472,64-62.224,64-101.616V157.603C415.007,70.168,343.437,0.03,256,0.803
				c-21.787-0.039-43.358,4.314-63.424,12.8l12.448,29.472c16.13-6.81,33.467-10.304,50.976-10.272
				c69.772-0.792,127.025,55.03,128,124.8v112.512c0,32-34.896,70.656-95.712,106c-20.026,11.36-44.549,11.36-64.576,0
				C162.896,340.787,128,302.147,128,270.131V157.475c0-1.472,0-2.912,0-4.336l-32-1.2c0,1.936,0,3.872,0,5.664v112.512
				c0,39.392,29.152,74.144,64,101.632v83.2l-55.152,27.536l14.304,28.64L192,474.691v-80.432c5.264,3.344,10.512,6.56,15.664,9.6
				c29.894,17.332,66.779,17.332,96.672,0c5.152-2.992,10.4-6.208,15.664-9.6v80.432l72.848,36.512l14.304-28.64L352,454.915
				V371.747z"/>
			<rect x="192" y="96.803" width="32" height="32"/>
			<rect x="288" y="96.803" width="32" height="32"/>
			<rect x="192" y="176.803" width="32" height="32"/>
			<rect x="288" y="176.803" width="32" height="32"/>
			<rect x="192" y="256.803" width="32" height="32"/>
			<rect x="288" y="256.803" width="32" height="32"/>
			<rect x="240" y="320.803" width="32" height="32"/>
			<polygon points="32,32.803 96,32.803 96,0.803 0,0.803 0,96.803 32,96.803 			"/>
			<polygon points="480,384.803 416,384.803 416,416.803 512,416.803 512,320.803 480,320.803 			"/>
			<polygon points="416,0.803 416,32.803 480,32.803 480,96.803 512,96.803 512,0.803 			"/>
			<polygon points="32,320.803 0,320.803 0,416.803 96,416.803 96,384.803 32,384.803 			"/>
		</g>
	</g>
</g>
<g>
</g>
<g>
</g>
<g>
</g>
<g>
</g>
<g>
</g>
<g>
</g>
<g>
</g>
<g>
</g>
<g>
</g>
<g>
</g>
<g>
</g>
<g>
</g>
<g>
</g>
<g>
</g>
<g>
</g>
</svg>
